<?xml version="1.0" standalone="no"?>
<!DOCTYPE svg PUBLIC "-//W3C//DTD SVG 20010904//EN"
 "http://www.w3.org/TR/2001/REC-SVG-20010904/DTD/svg10.dtd">
<svg version="1.0" xmlns="http://www.w3.org/2000/svg"
 width="500.000000pt" height="500.000000pt" viewBox="0 0 500.000000 500.000000"
 preserveAspectRatio="xMidYMid meet">

<g transform="translate(0.000000,500.000000) scale(0.100000,-0.100000)"
fill="#000000" stroke="none">
<path d="M0 2500 l0 -2500 2500 0 2500 0 0 2500 0 2500 -2500 0 -2500 0 0
-2500z m4780 671 c0 -346 -1 -369 -17 -367 -17 3 -18 28 -21 354 l-2 352
-2240 0 -2240 0 -2 -352 c-3 -327 -4 -353 -20 -356 -17 -3 -18 20 -18 367 l0
371 2280 0 2280 0 0 -369z m-1814 108 c32 -32 56 -59 54 -59 -14 0 -140 39
-159 49 -41 23 -17 86 29 74 9 -3 44 -31 76 -64z m-1250 -214 l139 -175 3 133
c3 159 0 175 -38 189 -50 17 -34 28 40 28 75 0 85 -8 45 -34 l-25 -16 0 -240
c0 -230 -1 -240 -19 -240 -19 0 -66 54 -252 294 l-84 109 -3 -139 c-4 -189 1
-223 39 -237 47 -18 34 -27 -41 -27 -72 0 -87 8 -47 25 22 10 22 12 25 241 l2
232 -25 6 c-47 12 -25 26 39 26 l63 0 139 -175z m1904 91 c0 -41 -4 -77 -8
-80 -5 -3 -13 15 -20 39 -6 24 -22 56 -35 71 -21 24 -32 28 -81 28 -40 1 -60
-3 -66 -14 -16 -24 -13 -210 3 -216 28 -10 65 15 83 55 10 23 21 41 26 41 4 0
8 -47 8 -105 0 -58 -3 -105 -7 -105 -5 1 -17 20 -28 42 -14 31 -28 44 -49 50
-16 4 -33 5 -38 2 -11 -7 -10 -205 1 -223 5 -7 29 -15 54 -18 77 -9 126 33
142 121 11 57 25 42 25 -26 0 -35 3 -73 6 -85 l6 -23 -208 1 c-152 0 -202 3
-181 11 l27 10 0 234 0 234 -25 10 c-14 5 -25 12 -25 15 0 3 88 5 195 5 l195
0 0 -74z m-1425 -6 c-3 -5 -14 -10 -24 -10 -11 0 -21 -10 -25 -22 -8 -33 -7
-351 2 -365 4 -7 19 -16 32 -22 19 -7 -6 -10 -95 -10 -89 0 -114 3 -95 10 13
6 28 15 32 22 9 14 11 348 2 371 -3 9 -14 16 -24 16 -11 0 -22 5 -25 10 -4 6
35 10 110 10 75 0 114 -4 110 -10z m275 0 c0 -5 -9 -10 -19 -10 -11 0 -23 -5
-26 -10 -8 -13 -10 -159 -2 -167 15 -14 64 13 118 64 66 63 77 98 34 109 -52
13 -22 24 65 24 50 0 90 -2 90 -5 0 -3 -16 -11 -36 -20 -20 -8 -63 -42 -96
-75 l-60 -61 18 -27 c43 -68 170 -232 183 -237 7 -3 19 -1 26 5 7 6 53 103
101 216 73 168 92 204 108 202 18 -3 27 -22 151 -298 25 -58 56 -115 67 -127
l21 -23 -109 1 c-86 0 -104 3 -86 11 28 14 28 36 1 99 l-22 50 -76 -3 -76 -3
-14 -41 c-19 -53 -9 -90 26 -100 23 -6 16 -9 -42 -15 -38 -4 -74 -3 -79 2 -6
5 -55 9 -110 10 -71 0 -94 3 -78 9 12 5 22 13 22 18 0 15 -105 165 -123 176
-27 17 -30 5 -28 -111 1 -68 2 -72 29 -81 21 -8 1 -11 -88 -11 -99 -1 -112 1
-90 12 l25 13 0 194 c0 195 0 195 -22 198 -13 2 -23 8 -23 13 0 5 49 9 110 9
67 0 110 -4 110 -10z m1400 0 c0 -5 -9 -10 -20 -10 -30 0 -26 -35 14 -121 18
-41 44 -98 56 -126 13 -29 26 -53 30 -53 4 0 25 46 48 103 55 133 59 197 11
197 -10 0 -19 5 -19 10 0 6 30 10 70 10 39 0 70 -2 70 -4 0 -2 -10 -16 -22
-29 -13 -14 -59 -112 -104 -219 -92 -221 -106 -235 -142 -151 -70 164 -166
360 -183 375 -10 9 -19 19 -19 22 0 3 47 6 105 6 63 0 105 -4 105 -10z m482
-105 c27 -60 70 -156 95 -212 26 -57 52 -103 60 -103 7 0 13 -4 13 -10 0 -6
-42 -10 -106 -10 -67 0 -103 4 -99 10 3 6 13 10 21 10 19 0 18 25 -3 83 -20
55 -30 60 -118 55 l-60 -3 -14 -41 c-19 -54 -9 -91 27 -101 21 -6 12 -9 -43
-14 -38 -3 -72 -4 -74 -2 -2 1 7 15 20 31 13 15 62 117 109 225 70 165 88 197
103 195 14 -2 34 -35 69 -113z m-3399 -112 c-18 -2 -48 -2 -65 0 -18 2 -4 4
32 4 36 0 50 -2 33 -4z m89 -29 c32 -9 57 -19 54 -21 -2 -2 -30 3 -62 13 -69
20 -194 15 -264 -11 -25 -8 -40 -11 -35 -6 18 18 118 40 184 40 36 1 91 -6
123 -15z m-317 -14 c-3 -5 -12 -10 -18 -10 -7 0 -6 4 3 10 19 12 23 12 15 0z
m410 -8 c-3 -3 -11 0 -18 7 -9 10 -8 11 6 5 10 -3 15 -9 12 -12z m-415 -17 c0
-2 -10 -9 -22 -15 -22 -11 -22 -10 -4 4 21 17 26 19 26 11z m440 -21 c0 -2 -9
0 -20 6 -11 6 -20 13 -20 16 0 2 9 0 20 -6 11 -6 20 -13 20 -16z m-491 13 c-2
-1 -15 -11 -29 -22 l-25 -20 19 23 c11 12 24 22 29 22 6 0 8 -1 6 -3z m542
-24 l24 -28 -30 25 c-16 14 -32 26 -34 28 -2 1 0 2 6 2 5 0 20 -12 34 -27z
m-541 4 c0 -2 -19 -21 -42 -42 l-43 -40 40 43 c36 39 45 47 45 39z m-90 -61
c0 -2 -8 -10 -17 -17 -16 -13 -17 -12 -4 4 13 16 21 21 21 13z m701 -13 c13
-16 12 -17 -3 -4 -17 13 -22 21 -14 21 2 0 10 -8 17 -17z m9 -57 c0 -12 -5 -7
-19 24 -11 24 -11 24 3 6 9 -11 16 -24 16 -30z m48 -41 c-3 -3 -9 2 -12 12 -6
14 -5 15 5 6 7 -7 10 -15 7 -18z m-562 -119 l99 -121 3 100 c3 98 2 100 -24
121 l-26 22 51 0 c28 0 51 -2 51 -4 0 -2 -9 -13 -20 -24 -18 -18 -20 -33 -20
-185 0 -92 -4 -165 -9 -165 -5 0 -60 64 -123 142 l-113 142 -3 -114 c-1 -63 0
-120 2 -127 3 -7 16 -18 28 -23 18 -7 12 -9 -31 -9 -50 -1 -53 0 -35 13 17 13
19 29 22 151 4 150 -1 185 -23 185 -8 0 -15 4 -15 10 0 5 20 9 44 8 44 0 44
-1 142 -122z m424 101 c14 -7 31 -25 38 -40 17 -36 0 -73 -45 -97 -35 -18 -34
-30 3 -30 31 0 74 -48 74 -83 0 -75 -46 -99 -197 -104 -97 -4 -113 -2 -113 11
0 9 6 15 13 14 9 -2 13 37 15 164 2 152 1 167 -15 171 -10 3 32 5 92 6 71 0
119 -4 135 -12z m157 -49 c-3 -8 -6 -5 -6 6 -1 11 2 17 5 13 3 -3 4 -12 1 -19z
m-880 -55 c-3 -10 -5 -4 -5 12 0 17 2 24 5 18 2 -7 2 -21 0 -30z m890 5 c-3
-7 -5 -2 -5 12 0 14 2 19 5 13 2 -7 2 -19 0 -25z m-30 -100 c-3 -8 -6 -5 -6 6
-1 11 2 17 5 13 3 -3 4 -12 1 -19z m-860 -40 c-3 -7 -5 -2 -5 12 0 14 2 19 5
13 2 -7 2 -19 0 -25z m3953 17 c0 -13 -169 -15 -1460 -15 -1291 0 -1460 2
-1460 15 0 13 169 15 1460 15 1291 0 1460 -2 1460 -15z m-3063 -27 c-3 -7 -5
-2 -5 12 0 14 2 19 5 13 2 -7 2 -19 0 -25z m-26 -85 c-12 -20 -14 -14 -5 12 4
9 9 14 11 11 3 -2 0 -13 -6 -23z m-31 -62 c-5 -11 -15 -23 -21 -27 -6 -3 -3 5
6 20 20 30 30 35 15 7z m-760 -16 c14 -19 14 -19 -2 -6 -10 7 -18 18 -18 24 0
6 1 8 3 6 1 -2 9 -13 17 -24z m100 -112 c0 -8 -9 0 -50 45 l-45 47 48 -45 c26
-24 47 -45 47 -47z m600 84 c0 -2 -10 -12 -22 -23 l-23 -19 19 23 c18 21 26
27 26 19z m30 0 c0 -2 -10 -12 -22 -23 l-23 -19 19 23 c18 21 26 27 26 19z
m-1022 -365 l2 -352 2240 0 2240 0 2 352 c3 327 4 353 21 356 16 3 17 -20 17
-367 l0 -371 -2280 0 -2280 0 0 371 c0 347 1 370 18 367 16 -3 17 -29 20 -356z
m972 314 c0 -2 -8 -10 -17 -17 -16 -13 -17 -12 -4 4 13 16 21 21 21 13z m1058
-16 c50 -31 43 -86 -16 -119 -19 -10 -19 -10 23 -31 16 -9 36 -27 44 -42 14
-24 14 -30 -1 -62 -13 -26 -26 -37 -55 -45 -39 -11 -241 -14 -213 -4 27 10 30
26 30 160 0 125 -1 133 -22 147 -21 15 -16 16 77 16 82 0 106 -4 133 -20z
m338 -2 c-3 -13 -6 -36 -7 -53 l-1 -30 -12 34 c-15 42 -41 61 -83 61 l-33 0 0
-75 c0 -61 3 -75 15 -75 9 0 24 13 33 30 9 16 20 30 25 30 4 0 7 -30 7 -66 l0
-66 -29 31 c-44 47 -51 41 -51 -44 l0 -75 34 0 c42 0 76 27 92 71 l11 34 4
-58 4 -57 -135 1 c-91 0 -128 3 -112 9 21 9 22 13 22 155 0 142 -1 146 -22
155 -16 6 20 9 111 9 l133 1 -6 -22z m222 -30 c73 -191 95 -245 109 -260 15
-17 12 -18 -57 -18 -62 0 -71 2 -57 13 16 11 16 15 1 60 l-16 47 -52 0 c-53 0
-53 0 -64 -39 -16 -53 -15 -60 11 -71 18 -7 12 -9 -27 -9 -46 -1 -48 0 -33 17
14 15 36 69 109 260 14 37 25 52 38 52 13 0 24 -15 38 -52z m260 41 c-16 -9
-18 -26 -18 -134 0 -68 3 -131 6 -140 9 -21 49 -37 78 -29 43 10 56 52 56 172
0 103 -2 112 -22 126 -22 15 -21 16 27 16 41 0 46 -2 33 -12 -12 -10 -17 -40
-21 -133 -3 -66 -8 -128 -12 -138 -11 -26 -64 -50 -111 -49 -92 1 -114 40
-114 202 0 105 -1 111 -22 120 -17 6 -1 9 57 9 59 0 75 -2 63 -10z m479 -44
c-5 -66 -12 -77 -21 -33 -8 38 -42 78 -68 78 -17 0 -18 -10 -16 -152 l3 -152
25 -7 c14 -4 -13 -7 -65 -7 -62 -1 -83 2 -68 8 21 9 22 15 25 155 2 81 0 149
-5 152 -20 12 -51 -13 -72 -60 l-24 -52 0 63 -1 62 146 0 145 0 -4 -55z m141
48 c-24 -6 -22 -18 16 -92 l32 -63 16 24 c9 14 22 44 29 67 12 40 11 45 -6 57
-17 13 -14 14 30 14 l48 0 -20 -22 c-12 -13 -35 -51 -52 -85 -26 -52 -31 -74
-31 -133 0 -64 2 -72 23 -80 16 -6 0 -9 -58 -9 -59 0 -75 2 -62 10 13 8 17 23
17 66 0 48 -7 69 -46 142 -26 47 -50 88 -55 89 -5 2 -9 8 -9 13 0 5 33 8 73 8
39 -1 64 -3 55 -6z m-2553 -13 c-3 -5 -16 -15 -28 -21 -19 -9 -19 -8 3 10 28
23 34 26 25 11z m-445 -36 c0 -2 -9 0 -20 6 -11 6 -20 13 -20 16 0 2 9 0 20
-6 11 -6 20 -13 20 -16z m40 -14 c8 -5 11 -10 5 -10 -5 0 -17 5 -25 10 -8 5
-10 10 -5 10 6 0 17 -5 25 -10z m320 0 c-8 -5 -19 -10 -25 -10 -5 0 -3 5 5 10
8 5 20 10 25 10 6 0 3 -5 -5 -10z m-273 -16 c-3 -3 -12 -4 -19 -1 -8 3 -5 6 6
6 11 1 17 -2 13 -5z m230 0 c-3 -3 -12 -4 -19 -1 -8 3 -5 6 6 6 11 1 17 -2 13
-5z m-79 -17 c-29 -5 -67 -6 -95 0 -43 8 -38 9 47 9 85 0 90 -1 48 -9z m-15
-24 c-13 -2 -35 -2 -50 0 -16 2 -5 4 22 4 28 0 40 -2 28 -4z"/>
<path d="M2911 3019 c-5 -13 -19 -46 -30 -72 -12 -27 -21 -53 -21 -58 0 -10
113 -13 122 -4 5 5 -47 142 -58 154 -2 2 -8 -7 -13 -20z"/>
<path d="M4202 2969 c-18 -39 -32 -76 -32 -80 0 -11 117 -12 123 -1 3 4 -10
40 -28 80 l-32 73 -31 -72z"/>
<path d="M1080 2570 c0 -73 2 -80 20 -80 49 0 75 69 50 134 -7 20 -16 26 -40
26 l-30 0 0 -80z"/>
<path d="M1080 2395 l0 -85 35 0 c54 0 82 60 61 128 -8 23 -42 42 -77 42 -17
0 -19 -8 -19 -85z"/>
<path d="M2176 2134 c-3 -9 -6 -40 -6 -70 0 -45 3 -54 18 -54 34 0 54 24 56
67 0 22 -5 48 -13 57 -17 20 -47 21 -55 0z"/>
<path d="M2170 1936 c0 -82 6 -96 40 -96 22 0 31 7 45 35 29 62 -3 125 -62
125 -22 0 -23 -4 -23 -64z"/>
<path d="M2753 2021 l-22 -61 45 0 c51 0 51 1 15 84 l-16 38 -22 -61z"/>
</g>
</svg>
