<svg width="158" height="65" viewBox="0 0 158 65" fill="none" xmlns="http://www.w3.org/2000/svg">
<rect y="4" width="158" height="61" fill="black"/>
<path d="M84 5.72656V58.7266" stroke="black" stroke-width="0.342906"/>
<path d="M2.43779 25.5851V5.6205H155.562V25.5851H157V4.72656H1V25.5851H2.43779ZM155.562 42.868V62.8326H2.43779V42.868H1V63.7266H157V42.868H155.562Z" fill="white"/>
<path d="M58.325 11.8C57.775 11.8833 57.3667 12.025 57.1 12.225C56.85 12.425 56.675 12.7417 56.575 13.175C56.4917 13.6083 56.45 14.25 56.45 15.1V29.05L55.85 29.025L55.175 29.05L44.325 15.3V24.9C44.325 25.8833 44.375 26.6083 44.475 27.075C44.575 27.525 44.7917 27.8583 45.125 28.075C45.4583 28.275 46 28.4167 46.75 28.5V29C46.1 28.95 45.2 28.925 44.05 28.925C43.1333 28.925 42.4083 28.95 41.875 29V28.5C42.425 28.4167 42.825 28.275 43.075 28.075C43.3417 27.875 43.5167 27.5583 43.6 27.125C43.7 26.6917 43.75 26.05 43.75 25.2V13.95C43.75 13.3167 43.7 12.8583 43.6 12.575C43.5167 12.2917 43.3417 12.1 43.075 12C42.825 11.9 42.425 11.8333 41.875 11.8V11.3C42.4083 11.35 43.1333 11.375 44.05 11.375C44.8833 11.375 45.6 11.35 46.2 11.3L55.875 23.225V15.4C55.875 14.4167 55.825 13.7 55.725 13.25C55.625 12.7833 55.4083 12.45 55.075 12.25C54.7417 12.0333 54.2 11.8833 53.45 11.8V11.3C54.1 11.35 55 11.375 56.15 11.375C57.0833 11.375 57.8083 11.35 58.325 11.3V11.8ZM67.0699 14.3C66.5033 14.3333 66.0949 14.4 65.8449 14.5C65.5949 14.6 65.4199 14.7917 65.3199 15.075C65.2366 15.3583 65.1949 15.8167 65.1949 16.45V26.35C65.1949 26.9833 65.2366 27.4417 65.3199 27.725C65.4199 28.0083 65.5949 28.2 65.8449 28.3C66.0949 28.4 66.5033 28.4667 67.0699 28.5V29C66.2199 28.95 64.9866 28.925 63.3699 28.925C61.6199 28.925 60.3283 28.95 59.4949 29V28.5C60.0616 28.4667 60.4699 28.4 60.7199 28.3C60.9699 28.2 61.1366 28.0083 61.2199 27.725C61.3199 27.4417 61.3699 26.9833 61.3699 26.35V16.45C61.3699 15.8167 61.3199 15.3583 61.2199 15.075C61.1366 14.7917 60.9616 14.6 60.6949 14.5C60.4449 14.4 60.0449 14.3333 59.4949 14.3V13.8C60.3116 13.85 61.6033 13.875 63.3699 13.875C64.9866 13.875 66.2199 13.85 67.0699 13.8V14.3ZM83.7973 26.975C84.1139 27.3917 84.3889 27.7083 84.6223 27.925C84.8556 28.1417 85.1473 28.3333 85.4973 28.5V29C84.3473 28.95 83.0723 28.925 81.6723 28.925C80.4889 28.925 79.3556 28.95 78.2723 29V28.5C78.8056 28.4833 79.1806 28.4417 79.3973 28.375C79.6139 28.2917 79.7223 28.175 79.7223 28.025C79.7223 27.875 79.6306 27.6583 79.4473 27.375L76.1723 22.675C75.8889 22.275 75.6056 21.975 75.3223 21.775C75.0389 21.5583 74.6639 21.4417 74.1973 21.425V26.35C74.1973 26.9833 74.2389 27.4417 74.3223 27.725C74.4223 28.0083 74.5973 28.2 74.8473 28.3C75.0973 28.4 75.5056 28.4667 76.0723 28.5V29C75.2223 28.95 73.9889 28.925 72.3723 28.925C70.6389 28.925 69.3473 28.95 68.4973 29V28.5C69.0639 28.4667 69.4723 28.4 69.7223 28.3C69.9723 28.2 70.1389 28.0083 70.2223 27.725C70.3223 27.4417 70.3723 26.9833 70.3723 26.35V16.45C70.3723 15.8167 70.3223 15.3583 70.2223 15.075C70.1389 14.7917 69.9639 14.6 69.6973 14.5C69.4473 14.4 69.0473 14.3333 68.4973 14.3V13.8C69.3473 13.85 70.6389 13.875 72.3723 13.875C73.9889 13.875 75.2223 13.85 76.0723 13.8V14.3C75.5056 14.3333 75.0973 14.4 74.8473 14.5C74.5973 14.6 74.4223 14.7917 74.3223 15.075C74.2389 15.3583 74.1973 15.8167 74.1973 16.45V20.925C74.9139 20.8583 75.5723 20.675 76.1723 20.375C76.7723 20.075 77.4139 19.6 78.0973 18.95L79.6223 17.4C80.2723 16.7667 80.5973 16.1917 80.5973 15.675C80.5973 15.275 80.4223 14.95 80.0723 14.7C79.7223 14.45 79.2723 14.3083 78.7223 14.275V13.8C79.9223 13.85 81.2056 13.875 82.5723 13.875C83.4556 13.875 84.1973 13.85 84.7973 13.8V14.275C84.2139 14.4083 83.6556 14.6417 83.1223 14.975C82.5889 15.2917 82.0139 15.7417 81.3973 16.325L78.3223 19.35L83.7973 26.975ZM99.4701 26.9C99.9535 27.9333 100.478 28.4667 101.045 28.5V29C100.245 28.95 99.1535 28.925 97.7701 28.925C95.9868 28.925 94.6701 28.95 93.8201 29V28.5C94.3701 28.4667 94.7784 28.3833 95.0451 28.25C95.3118 28.1 95.4451 27.8583 95.4451 27.525C95.4451 27.225 95.3368 26.85 95.1201 26.4L93.8701 23.55H88.6201L88.3201 24.225C87.8534 25.325 87.6201 26.1833 87.6201 26.8C87.6201 27.3667 87.8034 27.7833 88.1701 28.05C88.5368 28.3167 89.0784 28.4667 89.7951 28.5V29C88.8451 28.95 87.8868 28.925 86.9201 28.925C86.0201 28.925 85.3451 28.95 84.8951 29V28.5C85.2951 28.4167 85.6618 28.1667 85.9951 27.75C86.3451 27.3167 86.7118 26.675 87.0951 25.825L92.3701 13.75C92.5034 13.7667 92.6951 13.775 92.9451 13.775C93.2118 13.775 93.4035 13.7667 93.5201 13.75L99.4701 26.9ZM93.6451 23.05L91.2451 17.575L88.8451 23.05H93.6451ZM90.5201 7.7C90.7701 7.85 91.0035 8.025 91.2201 8.225C91.4368 8.40833 91.7285 8.69167 92.0951 9.075C92.9285 9.975 93.7535 10.7667 94.5701 11.45L94.3951 11.75C93.5951 11.45 92.8785 11.2167 92.2451 11.05C91.6285 10.8833 91.2618 10.7833 91.1451 10.75C90.7618 10.6667 90.4034 10.575 90.0701 10.475C89.7368 10.3583 89.4451 10.2333 89.1951 10.1C88.9285 9.95 88.7201 9.76667 88.5701 9.55C88.4201 9.31667 88.3451 9.075 88.3451 8.825C88.3451 8.60833 88.3951 8.41667 88.4951 8.25C88.6118 8 88.7784 7.81667 88.9951 7.7C89.2285 7.56667 89.4785 7.5 89.7451 7.5C90.0284 7.5 90.2868 7.56667 90.5201 7.7ZM115.119 25.2C115.119 26.7333 115.177 28 115.294 29C114.161 28.95 112.252 28.925 109.569 28.925C105.936 28.925 103.219 28.95 101.419 29V28.5C101.969 28.4667 102.369 28.4 102.619 28.3C102.886 28.2 103.061 28.0083 103.144 27.725C103.244 27.4417 103.294 26.9833 103.294 26.35V13.95C103.294 13.3167 103.244 12.8583 103.144 12.575C103.061 12.2917 102.886 12.1 102.619 12C102.369 11.9 101.969 11.8333 101.419 11.8V11.3C103.219 11.35 105.936 11.375 109.569 11.375C112.019 11.375 113.761 11.35 114.794 11.3C114.677 12.6833 114.619 13.9167 114.619 15C114.619 15.7333 114.644 16.3 114.694 16.7H114.119C113.869 14.9167 113.419 13.6667 112.769 12.95C112.119 12.2333 111.202 11.875 110.019 11.875H108.994C108.477 11.875 108.102 11.9167 107.869 12C107.636 12.0833 107.477 12.25 107.394 12.5C107.311 12.7333 107.269 13.1167 107.269 13.65V19.85H108.069C108.952 19.85 109.619 19.525 110.069 18.875C110.536 18.225 110.861 17.45 111.044 16.55H111.619C111.569 17.25 111.544 18.0333 111.544 18.9V20.1C111.544 20.95 111.594 22.1333 111.694 23.65H111.119C110.769 21.45 109.752 20.35 108.069 20.35H107.269V26.65C107.269 27.1833 107.311 27.575 107.394 27.825C107.477 28.0583 107.636 28.2167 107.869 28.3C108.102 28.3833 108.477 28.425 108.994 28.425H110.219C111.402 28.425 112.352 28.025 113.069 27.225C113.802 26.4083 114.319 25.0333 114.619 23.1H115.194C115.144 23.65 115.119 24.35 115.119 25.2ZM130.066 13.875C130.799 13.875 131.408 13.85 131.891 13.8V14.3C131.458 14.4667 131.058 14.7917 130.691 15.275C130.324 15.7417 129.941 16.4417 129.541 17.375L124.641 29.05C124.508 29.0333 124.316 29.025 124.066 29.025C123.816 29.025 123.624 29.0333 123.491 29.05L117.316 15.9C116.833 14.8667 116.308 14.3333 115.741 14.3V13.8C116.524 13.85 117.616 13.875 119.016 13.875C120.799 13.875 122.116 13.85 122.966 13.8V14.3C122.416 14.3333 122.008 14.425 121.741 14.575C121.474 14.7083 121.341 14.9333 121.341 15.25C121.341 15.5667 121.449 15.95 121.666 16.4L125.691 25.15L128.216 19.275C128.749 17.9917 129.016 16.9667 129.016 16.2C129.016 14.9833 128.341 14.35 126.991 14.3V13.8C127.941 13.85 128.966 13.875 130.066 13.875ZM143.274 26.9C143.757 27.9333 144.282 28.4667 144.849 28.5V29C144.049 28.95 142.957 28.925 141.574 28.925C139.791 28.925 138.474 28.95 137.624 29V28.5C138.174 28.4667 138.582 28.3833 138.849 28.25C139.116 28.1 139.249 27.8583 139.249 27.525C139.249 27.225 139.141 26.85 138.924 26.4L137.674 23.55H132.424L132.124 24.225C131.657 25.325 131.424 26.1833 131.424 26.8C131.424 27.3667 131.607 27.7833 131.974 28.05C132.341 28.3167 132.882 28.4667 133.599 28.5V29C132.649 28.95 131.691 28.925 130.724 28.925C129.824 28.925 129.149 28.95 128.699 29V28.5C129.099 28.4167 129.466 28.1667 129.799 27.75C130.149 27.3167 130.516 26.675 130.899 25.825L136.174 13.75C136.307 13.7667 136.499 13.775 136.749 13.775C137.016 13.775 137.207 13.7667 137.324 13.75L143.274 26.9ZM137.449 23.05L135.049 17.575L132.649 23.05H137.449Z" fill="white"/>
<path d="M45 35H145" stroke="white" stroke-width="1.02872"/>
<path d="M73.85 48.42C75.15 48.52 76.105 48.82 76.715 49.32C77.325 49.82 77.63 50.41 77.63 51.09C77.63 52.02 77.265 52.74 76.535 53.25C75.805 53.75 74.79 54 73.49 54C73.2 54 72.955 53.995 72.755 53.985C72.095 53.965 71.45 53.955 70.82 53.955C69.79 53.955 69.02 53.97 68.51 54V53.7C68.84 53.68 69.08 53.64 69.23 53.58C69.39 53.52 69.495 53.405 69.545 53.235C69.605 53.065 69.635 52.79 69.635 52.41V44.97C69.635 44.59 69.605 44.315 69.545 44.145C69.495 43.975 69.39 43.86 69.23 43.8C69.08 43.74 68.84 43.7 68.51 43.68V43.38C69.02 43.41 69.78 43.425 70.79 43.425L72.455 43.41C72.655 43.4 72.885 43.395 73.145 43.395C74.345 43.395 75.26 43.61 75.89 44.04C76.53 44.47 76.85 45.04 76.85 45.75C76.85 46.33 76.595 46.87 76.085 47.37C75.585 47.87 74.84 48.21 73.85 48.39V48.42ZM72.95 43.68C72.68 43.68 72.48 43.715 72.35 43.785C72.23 43.855 72.145 43.98 72.095 44.16C72.045 44.34 72.02 44.61 72.02 44.97V48.36H72.665C73.315 48.36 73.77 48.14 74.03 47.7C74.29 47.25 74.42 46.655 74.42 45.915C74.42 45.165 74.3 44.605 74.06 44.235C73.83 43.865 73.46 43.68 72.95 43.68ZM73.055 53.655C74.445 53.655 75.14 52.78 75.14 51.03C75.14 50.24 74.94 49.64 74.54 49.23C74.14 48.82 73.51 48.615 72.65 48.615H72.02V52.41C72.02 52.77 72.045 53.035 72.095 53.205C72.145 53.375 72.24 53.495 72.38 53.565C72.53 53.625 72.755 53.655 73.055 53.655ZM86.5992 51.72C86.5992 52.64 86.6342 53.4 86.7042 54C86.0242 53.97 84.8792 53.955 83.2692 53.955C81.0892 53.955 79.4592 53.97 78.3792 54V53.7C78.7092 53.68 78.9492 53.64 79.0992 53.58C79.2592 53.52 79.3642 53.405 79.4142 53.235C79.4742 53.065 79.5042 52.79 79.5042 52.41V44.97C79.5042 44.59 79.4742 44.315 79.4142 44.145C79.3642 43.975 79.2592 43.86 79.0992 43.8C78.9492 43.74 78.7092 43.7 78.3792 43.68V43.38C79.4592 43.41 81.0892 43.425 83.2692 43.425C84.7392 43.425 85.7842 43.41 86.4042 43.38C86.3342 44.21 86.2992 44.95 86.2992 45.6C86.2992 46.04 86.3142 46.38 86.3442 46.62H85.9992C85.8492 45.55 85.5792 44.8 85.1892 44.37C84.7992 43.94 84.2492 43.725 83.5392 43.725H82.9242C82.6142 43.725 82.3892 43.75 82.2492 43.8C82.1092 43.85 82.0142 43.95 81.9642 44.1C81.9142 44.24 81.8892 44.47 81.8892 44.79V48.51H82.3692C82.8992 48.51 83.2992 48.315 83.5692 47.925C83.8492 47.535 84.0442 47.07 84.1542 46.53H84.4992C84.4692 46.95 84.4542 47.42 84.4542 47.94V48.66C84.4542 49.17 84.4842 49.88 84.5442 50.79H84.1992C83.9892 49.47 83.3792 48.81 82.3692 48.81H81.8892V52.59C81.8892 52.91 81.9142 53.145 81.9642 53.295C82.0142 53.435 82.1092 53.53 82.2492 53.58C82.3892 53.63 82.6142 53.655 82.9242 53.655H83.6592C84.3692 53.655 84.9392 53.415 85.3692 52.935C85.8092 52.445 86.1192 51.62 86.2992 50.46H86.6442C86.6142 50.79 86.5992 51.21 86.5992 51.72ZM96.376 52.74C96.506 53.07 96.656 53.31 96.826 53.46C96.996 53.61 97.161 53.69 97.321 53.7V54C96.721 53.97 95.961 53.955 95.041 53.955C94.021 53.955 93.261 53.97 92.761 54V53.7C93.141 53.68 93.411 53.635 93.571 53.565C93.731 53.485 93.811 53.35 93.811 53.16C93.811 52.98 93.751 52.74 93.631 52.44L92.731 49.98H89.461L89.071 51.015C88.791 51.735 88.651 52.29 88.651 52.68C88.651 53.05 88.761 53.31 88.981 53.46C89.211 53.6 89.546 53.68 89.986 53.7V54C89.306 53.97 88.686 53.955 88.126 53.955C87.666 53.955 87.286 53.97 86.986 54V53.7C87.476 53.61 87.906 53.085 88.276 52.125L91.696 43.35C91.806 43.36 91.981 43.365 92.221 43.365C92.461 43.365 92.631 43.36 92.731 43.35L96.376 52.74ZM92.626 49.68L91.141 45.63L89.581 49.68H92.626ZM107.116 43.68C106.786 43.73 106.541 43.815 106.381 43.935C106.231 44.055 106.126 44.245 106.066 44.505C106.016 44.765 105.991 45.15 105.991 45.66V49.635C105.991 51.065 105.786 52.125 105.376 52.815C105.106 53.255 104.716 53.6 104.206 53.85C103.696 54.09 103.071 54.21 102.331 54.21C101.171 54.21 100.271 53.96 99.6309 53.46C99.1709 53.09 98.8609 52.625 98.7009 52.065C98.5409 51.495 98.4609 50.7 98.4609 49.68V44.97C98.4609 44.59 98.4309 44.315 98.3709 44.145C98.3209 43.975 98.2159 43.86 98.0559 43.8C97.9059 43.74 97.6659 43.7 97.3359 43.68V43.38C97.8459 43.41 98.6259 43.425 99.6759 43.425C100.716 43.425 101.511 43.41 102.061 43.38V43.68C101.701 43.7 101.436 43.74 101.266 43.8C101.106 43.86 100.996 43.975 100.936 44.145C100.876 44.315 100.846 44.59 100.846 44.97V50.625C100.846 51.675 100.996 52.45 101.296 52.95C101.606 53.44 102.146 53.685 102.916 53.685C103.916 53.685 104.621 53.35 105.031 52.68C105.441 52 105.646 51.04 105.646 49.8V45.84C105.646 45.26 105.611 44.83 105.541 44.55C105.471 44.27 105.336 44.07 105.136 43.95C104.936 43.82 104.621 43.73 104.191 43.68V43.38C104.571 43.41 105.111 43.425 105.811 43.425C106.371 43.425 106.806 43.41 107.116 43.38V43.68ZM116.858 43.38C116.788 44.33 116.753 45.18 116.753 45.93C116.753 46.4 116.768 46.78 116.798 47.07H116.453C116.213 45.84 115.883 44.975 115.463 44.475C115.053 43.975 114.488 43.725 113.768 43.725H113.423V52.29C113.423 52.71 113.463 53.015 113.543 53.205C113.633 53.395 113.783 53.525 113.993 53.595C114.213 53.655 114.558 53.69 115.028 53.7V54C113.768 53.97 112.818 53.955 112.178 53.955C111.548 53.955 110.633 53.97 109.433 54V53.7C109.903 53.69 110.243 53.655 110.453 53.595C110.673 53.525 110.823 53.395 110.903 53.205C110.993 53.015 111.038 52.71 111.038 52.29V43.725H110.708C110.228 43.725 109.818 43.83 109.478 44.04C109.148 44.25 108.863 44.6 108.623 45.09C108.383 45.57 108.178 46.23 108.008 47.07H107.663C107.693 46.78 107.708 46.4 107.708 45.93C107.708 45.18 107.673 44.33 107.603 43.38C108.513 43.41 110.058 43.425 112.238 43.425C114.418 43.425 115.958 43.41 116.858 43.38ZM125.197 43.41C125.657 43.41 126.037 43.395 126.337 43.365V43.665C125.877 43.855 125.397 44.435 124.897 45.405L123.127 48.915V52.41C123.127 52.79 123.152 53.065 123.202 53.235C123.262 53.405 123.367 53.52 123.517 53.58C123.667 53.64 123.912 53.68 124.252 53.7V54C123.712 53.97 122.942 53.955 121.942 53.955C120.872 53.955 120.097 53.97 119.617 54V53.7C119.947 53.68 120.187 53.64 120.337 53.58C120.497 53.52 120.602 53.405 120.652 53.235C120.712 53.065 120.742 52.79 120.742 52.41V49.875L117.847 44.52C117.537 43.96 117.247 43.68 116.977 43.68V43.365C117.417 43.415 118.007 43.44 118.747 43.44C119.677 43.44 120.617 43.415 121.567 43.365V43.68C121.217 43.68 120.937 43.715 120.727 43.785C120.527 43.845 120.427 43.96 120.427 44.13C120.427 44.22 120.462 44.33 120.532 44.46L122.812 48.855L123.982 46.515C124.372 45.725 124.567 45.105 124.567 44.655C124.567 44.315 124.457 44.07 124.237 43.92C124.027 43.77 123.722 43.685 123.322 43.665V43.365C124.002 43.395 124.627 43.41 125.197 43.41Z" fill="white"/>
<circle cx="21.0062" cy="34.0062" r="14.1465" transform="rotate(-45.0012 21.0062 34.0062)" fill="black"/>
<path d="M7.96107 33.9847C7.95125 33.5578 7.9618 33.1311 7.99271 32.7046C8.02532 32.2783 8.07942 31.853 8.15405 31.431C8.3058 30.5826 8.5404 29.7578 8.85787 28.9566C9.17818 28.1542 9.57405 27.3911 10.0455 26.6671C10.2809 26.3052 10.5342 25.9564 10.8055 25.6206C11.0762 25.2845 11.3631 24.9625 11.6661 24.6545C11.9692 24.3464 12.2868 24.0531 12.6189 23.7743C12.9511 23.4975 13.2966 23.2378 13.6553 22.9952C14.1043 22.6914 14.5703 22.4166 15.0534 22.1707C15.5364 21.9248 16.0328 21.7096 16.5425 21.5253C17.0522 21.3409 17.5714 21.1887 18.1 21.0688C18.6286 20.9488 19.1626 20.862 19.7019 20.8082C20.2413 20.7545 20.782 20.7343 21.3239 20.7476C21.8658 20.7609 22.4047 20.8077 22.9408 20.8879C23.4769 20.968 24.006 21.081 24.528 21.2268C25.0501 21.3726 25.5612 21.5501 26.0612 21.7593C26.8614 22.0965 27.6209 22.5086 28.3398 22.9956C28.6983 23.2381 29.0438 23.4979 29.3762 23.7751C29.7076 24.0523 30.0249 24.3453 30.3281 24.654C30.6313 24.9626 30.9181 25.2847 31.1886 25.6201C31.4599 25.9558 31.7131 26.3046 31.9485 26.6664C32.4201 27.3902 32.8159 28.1532 33.1361 28.9556C33.4536 29.7565 33.6883 30.581 33.8401 31.4291C33.9148 31.8511 33.9687 32.2757 34.0017 32.7029C34.0347 33.1301 34.0453 33.5568 34.0333 33.983C34.0333 33.9911 34.0293 33.9951 34.0213 33.9951C34.0132 33.9951 34.0092 33.9911 34.0092 33.983C34.0086 33.1286 33.9254 32.2824 33.7594 31.4443C33.6971 31.131 33.6233 30.8205 33.538 30.5127C33.4527 30.2049 33.3562 29.9007 33.2486 29.6C33.1408 29.2993 33.0222 29.003 32.8927 28.7111C32.7632 28.4191 32.6231 28.1323 32.4724 27.8507C32.3217 27.5691 32.1609 27.2934 31.9899 27.0237C31.8189 26.7539 31.6382 26.4908 31.4478 26.2343C31.2574 25.9779 31.0579 25.7288 30.8491 25.4871C30.6403 25.2454 30.423 25.0116 30.197 24.7859C29.971 24.5602 29.737 24.3432 29.4951 24.1347C29.2531 23.9262 29.0037 23.727 28.7471 23.5369C28.4904 23.3468 28.2271 23.1664 27.9571 22.9957C27.6872 22.8251 27.4113 22.6646 27.1295 22.5142C26.8477 22.3639 26.5607 22.2241 26.2686 22.095C25.9766 21.9658 25.6801 21.8475 25.3793 21.7402C25.0784 21.6329 24.7741 21.5368 24.4662 21.4519C24.1583 21.367 23.8477 21.2935 23.5343 21.2315C22.6967 21.067 21.851 20.9847 20.9973 20.9847C20.1436 20.9847 19.298 21.067 18.4603 21.2315C17.6227 21.3967 16.8096 21.6426 16.0209 21.9691C15.6273 22.1323 15.2427 22.3143 14.867 22.5152C14.4913 22.716 14.1264 22.9348 13.7721 23.1714C13.4179 23.4081 13.0761 23.6615 12.7466 23.9316C12.4172 24.2018 12.1018 24.4874 11.8004 24.7884C11.499 25.0895 11.213 25.4045 10.9425 25.7337C10.672 26.0627 10.4182 26.4043 10.1811 26.7582C9.94406 27.1122 9.72488 27.4769 9.52359 27.8524C9.3223 28.2278 9.13984 28.6122 8.97621 29.0056C8.64848 29.7942 8.40147 30.6074 8.23521 31.445C8.06913 32.2834 7.9858 33.13 7.98522 33.9847C7.98522 33.9927 7.9812 33.9968 7.97315 33.9968C7.96542 33.9966 7.96139 33.9927 7.96107 33.9849V33.9847Z" fill="white"/>
<path d="M21.0724 47.7444C13.4401 47.7444 7.22656 41.5308 7.22656 33.8985C7.22656 26.2663 13.4401 20.0527 21.0724 20.0527C28.7046 20.0527 34.9182 26.2663 34.9182 33.8985C34.9182 41.5308 28.7046 47.7444 21.0724 47.7444ZM21.0724 20.2574C13.5493 20.2574 7.43118 26.3754 7.43118 33.8985C7.43118 41.4217 13.5493 47.5397 21.0724 47.5397C28.5955 47.5397 34.7136 41.4217 34.7136 33.8985C34.7136 26.3754 28.5955 20.2574 21.0724 20.2574Z" fill="white"/>
<path d="M21.7204 29.9916C21.3471 30.0129 21.0697 30.0716 20.8884 30.1676C20.707 30.2529 20.5844 30.4023 20.5204 30.6156C20.4564 30.8183 20.4244 31.1223 20.4244 31.5276V41.08H20.0564L13.3361 30.6956V39.1439C13.3361 39.5599 13.3681 39.8693 13.4321 40.072C13.5068 40.2746 13.6454 40.424 13.8481 40.52C14.0508 40.6053 14.3655 40.6587 14.7921 40.68V41C14.4081 40.968 13.8641 40.952 13.1601 40.952C12.5201 40.952 12.024 40.968 11.672 41V40.68C12.0454 40.6587 12.3227 40.6053 12.5041 40.52C12.6854 40.424 12.8081 40.2746 12.8721 40.072C12.9361 39.8586 12.9681 39.5493 12.9681 39.1439V31.3676C12.9681 30.9623 12.9361 30.6689 12.8721 30.4876C12.8081 30.3063 12.6854 30.1836 12.5041 30.1196C12.3334 30.0556 12.056 30.0129 11.672 29.9916V29.6716C12.024 29.7036 12.5201 29.7196 13.1601 29.7196C13.6401 29.7196 14.0561 29.7036 14.4081 29.6716L20.0564 38.3759V31.5276C20.0564 31.1116 20.019 30.8023 19.9443 30.5996C19.8803 30.3969 19.747 30.2529 19.5443 30.1676C19.3417 30.0716 19.027 30.0129 18.6003 29.9916V29.6716C18.9843 29.7036 19.5283 29.7196 20.2324 29.7196C20.8724 29.7196 21.3684 29.7036 21.7204 29.6716V29.9916Z" fill="white"/>
<path fill-rule="evenodd" clip-rule="evenodd" d="M31.4929 27.2908C31.5866 27.5351 31.7042 27.7825 31.782 28.0369C31.8553 28.2769 31.8933 28.5235 31.8312 28.7786C31.7403 29.1533 31.4994 29.3867 31.2056 29.5564C30.894 29.7353 30.5235 29.8454 30.1931 29.9678C28.6939 30.5197 27.0478 30.8881 25.8944 32.0759C25.4852 32.4974 25.4697 32.8796 25.5111 33.2961C25.5369 33.5535 25.5864 33.8242 25.5638 34.1291C25.5419 34.4321 25.4203 34.719 25.2878 34.9892C24.9921 35.5888 24.355 35.9274 23.791 36.3138C23.1892 36.7254 22.668 37.188 22.6451 38.0125C22.6261 38.7141 23.0031 39.3043 23.3496 39.9044C23.6767 40.4699 23.976 41.0454 23.8256 41.7518C23.7477 42.114 23.5709 42.3775 23.3751 42.6302C23.1674 42.8983 22.9388 43.1529 22.7713 43.4836C22.2582 44.4982 22.0569 46.115 22.6233 47.1514C22.6469 47.1958 22.7027 47.2118 22.7471 47.1882C22.7914 47.1637 22.8074 47.1079 22.7829 47.0636C22.243 46.0758 22.4449 44.5332 22.9342 43.5657C23.096 43.2463 23.3187 43.0012 23.5187 42.7427C23.7307 42.4689 23.9199 42.1818 24.0044 41.79C24.1657 41.0353 23.8575 40.4175 23.5081 39.8129C23.1779 39.243 22.8092 38.6853 22.8273 38.0166C22.8486 37.259 23.3413 36.8428 23.8939 36.4643C24.4843 36.0607 25.142 35.6972 25.4515 35.0694C25.5939 34.7794 25.7223 34.4684 25.7456 34.1424C25.7694 33.8255 25.7194 33.5448 25.693 33.2783C25.6563 32.911 25.6661 32.5739 26.0261 32.2028C27.1596 31.0354 28.7828 30.682 30.256 30.1389C30.5963 30.0131 30.9766 29.8988 31.2961 29.7139C31.6334 29.5207 31.9041 29.2509 32.0083 28.8214C32.0786 28.5329 32.0397 28.2552 31.9564 27.9838C31.8774 27.725 31.7586 27.4739 31.6629 27.2252C31.6447 27.1787 31.5922 27.1552 31.5456 27.1725C31.4981 27.1908 31.4746 27.2434 31.4929 27.2908ZM33.6406 33.3688C33.8822 35.9085 33.6184 38.2815 32.3167 40.5141C31.9122 41.2078 31.4295 41.9399 30.7986 42.4518C30.2569 42.8901 29.3461 43.5911 28.4624 43.8249C27.8984 43.9736 27.3444 43.9306 26.9168 43.4778C26.8818 43.4414 26.8241 43.4402 26.7877 43.4743C26.7512 43.5093 26.7491 43.567 26.7841 43.6034C27.2623 44.1091 27.8785 44.1678 28.5091 44.0015C29.4181 43.7607 30.3563 43.0444 30.9129 42.5934C31.5613 42.0686 32.0594 41.3182 32.4748 40.6065C33.7964 38.3389 34.0673 35.9307 33.8225 33.3519C33.8178 33.3019 33.7736 33.2651 33.7236 33.2698C33.6736 33.2746 33.6358 33.3188 33.6406 33.3688ZM26.5146 40.7371C26.5168 40.7434 26.5209 40.7504 26.5267 40.7574C26.5306 40.7618 26.5622 40.7864 26.573 40.7977C26.5914 40.8168 26.6019 40.84 26.615 40.8612C26.6727 40.9567 26.7457 41.0338 26.8242 41.1107C27.0547 41.3343 27.3241 41.4998 27.6302 41.6056C27.9306 41.7081 28.1988 41.6003 28.4342 41.4166C28.6486 41.2488 28.8338 41.0186 28.9918 40.8568C29.0393 40.8083 29.1073 40.765 29.1657 40.7168C29.2155 40.6755 29.2586 40.6301 29.2867 40.5781C29.309 40.5366 29.2981 40.507 29.2928 40.4936C29.2789 40.4597 29.2518 40.432 29.198 40.4369C29.1889 40.4374 29.1718 40.4412 29.1514 40.4524C29.1354 40.4607 29.1074 40.4833 29.0914 40.4897C29.0439 40.508 28.9952 40.519 28.9452 40.5238C28.7878 40.5383 28.6462 40.5099 28.5081 40.4319C28.4145 40.3778 28.3636 40.2564 28.3278 40.1579C28.3202 40.1373 28.2943 40.0528 28.2684 40.0177C28.2436 39.9834 28.2118 39.9706 28.1861 39.9694C28.1704 39.9675 28.144 39.9691 28.1151 39.9918C28.088 40.0135 28.0068 40.1279 27.9913 40.1443C27.9543 40.1849 27.9128 40.2266 27.865 40.254C27.8296 40.2744 27.7901 40.2867 27.7447 40.2775C27.7207 40.2724 27.6984 40.2508 27.6723 40.2276C27.6328 40.1925 27.5938 40.1508 27.5543 40.1165C27.4762 40.0469 27.3937 40.0105 27.3242 40.0264C27.2926 40.0337 27.2563 40.055 27.2216 40.0872C27.172 40.1321 27.1213 40.2036 27.0873 40.2331C26.9245 40.376 26.7406 40.5494 26.5132 40.5543C26.4629 40.5553 26.4233 40.5969 26.4244 40.648C26.4254 40.6974 26.4651 40.7363 26.5146 40.7371ZM26.8626 40.8881C26.8909 40.9193 26.921 40.9487 26.952 40.9789C27.1632 41.1844 27.4098 41.3367 27.6897 41.433C27.9267 41.5144 28.1361 41.4182 28.3216 41.2722C28.4905 41.1408 28.6405 40.9667 28.774 40.8226C28.5523 40.8647 28.3256 40.8814 28.1029 40.9062C27.6549 40.9558 27.2683 40.9927 26.8626 40.8881ZM27.3647 40.2061C27.3612 40.2081 27.3559 40.2121 27.3524 40.215C27.3384 40.2268 27.323 40.2432 27.3084 40.2596C27.2706 40.302 27.2338 40.3471 27.2078 40.3706C27.0815 40.4822 26.9403 40.6019 26.7816 40.6732C27.2144 40.8193 27.6116 40.7772 28.0833 40.7244C28.2514 40.7056 28.4226 40.692 28.5922 40.6676C28.5335 40.649 28.4753 40.6231 28.4176 40.5899C28.2899 40.5176 28.2087 40.3614 28.158 40.2271C28.1436 40.2471 28.1299 40.2635 28.1256 40.2683C28.0172 40.3861 27.8778 40.492 27.7074 40.4561C27.6713 40.4481 27.6337 40.4293 27.5954 40.4013C27.5543 40.3698 27.5116 40.3275 27.47 40.2869C27.441 40.2602 27.4139 40.2334 27.3863 40.2167C27.3806 40.2125 27.3703 40.2076 27.3647 40.2061ZM32.6949 31.9728C32.1188 31.706 31.4212 31.8523 30.8342 32.0133C28.6626 32.6105 27.948 34.4763 27.7882 36.5269C27.7425 37.114 27.796 37.6935 27.8406 38.2772C27.8476 38.3655 27.8689 38.4822 27.8736 38.5954C27.8772 38.6885 27.8734 38.781 27.8268 38.8459C27.759 38.9386 27.6635 38.9651 27.5629 38.9645C27.4421 38.9633 27.3147 38.9257 27.2068 38.8945C27.1584 38.8808 27.108 38.9093 27.0933 38.9577C27.0797 39.0061 27.1082 39.0566 27.1565 39.0703C27.2793 39.1052 27.4243 39.1463 27.5616 39.1475C27.7198 39.1484 27.868 39.0996 27.9747 38.9526C28.0307 38.8754 28.054 38.7725 28.0568 38.6626C28.0607 38.5242 28.0319 38.3731 28.0228 38.263C27.9787 37.6894 27.9257 37.119 27.9701 36.5411C28.1244 34.5695 28.794 32.763 30.8828 32.1898C31.4302 32.0393 32.081 31.8902 32.6175 32.1383C32.6636 32.1594 32.7182 32.1397 32.7393 32.0937C32.7605 32.0477 32.74 31.994 32.6949 31.9728M30.4246 35.3624C30.3867 35.5137 30.346 35.6651 30.31 35.8172C30.2982 35.8663 30.3284 35.9158 30.3767 35.9276C30.4259 35.9394 30.4754 35.9091 30.4871 35.86C30.5241 35.7079 30.5639 35.5574 30.6018 35.4061C30.6136 35.357 30.5842 35.3074 30.5351 35.2957C30.4859 35.283 30.4364 35.3132 30.4246 35.3624ZM30.9551 35.3309C30.9461 35.4448 30.9294 35.5683 30.9352 35.6842C30.9381 35.7352 30.9815 35.773 31.0317 35.7701C31.0827 35.768 31.1205 35.7247 31.1176 35.6745C31.1122 35.566 31.1285 35.4517 31.137 35.346C31.1415 35.2963 31.1042 35.2519 31.0536 35.2475C31.004 35.243 30.9595 35.2803 30.9551 35.3309ZM31.4042 35.3324C31.4801 35.4268 31.5547 35.5305 31.6532 35.6053C31.6934 35.6359 31.7505 35.628 31.7812 35.5878C31.8117 35.5476 31.8039 35.4905 31.7637 35.4598C31.6776 35.3935 31.6137 35.3011 31.5457 35.2173C31.5142 35.178 31.4563 35.1721 31.417 35.2046C31.3785 35.2361 31.3718 35.2932 31.4042 35.3324ZM29.9364 35.2863C29.8843 35.3506 29.8242 35.418 29.7741 35.4859C29.7445 35.5269 29.7532 35.584 29.7943 35.6136C29.8353 35.6433 29.8924 35.6345 29.9221 35.5935C29.9695 35.5276 30.0271 35.464 30.0776 35.4034C30.11 35.3641 30.104 35.3068 30.0656 35.2743C30.0262 35.2427 29.9689 35.2478 29.9364 35.2863ZM32.0785 35.1143C32.2188 35.1995 32.2021 35.1968 32.3321 35.2607C32.3773 35.2837 32.432 35.2649 32.455 35.2197C32.4771 35.1745 32.4584 35.1199 32.4131 35.0968C32.2908 35.0362 32.3065 35.039 32.1737 34.9579C32.1311 34.932 32.0752 34.9453 32.0484 34.988C32.0225 35.0315 32.0358 35.0875 32.0785 35.1143ZM29.7219 34.5962C29.8301 34.6485 29.9154 34.7315 30.0049 34.8095C30.109 34.9014 30.2173 34.9875 30.3523 35.0291C31.0984 35.2623 31.9477 34.7331 32.3612 34.1486C32.3908 34.1076 32.3812 34.0505 32.3393 34.0219C32.2983 33.9931 32.2412 34.0028 32.2125 34.0438C31.8387 34.5711 31.0806 35.0648 30.4073 34.8549C30.2964 34.821 30.2108 34.7473 30.1251 34.6727C30.0239 34.5834 29.9234 34.4904 29.8002 34.4317C29.755 34.4096 29.7004 34.4292 29.6792 34.4752C29.6572 34.5204 29.6768 34.5751 29.7219 34.5963" fill="white"/>
<path d="M27.984 35.016C29.1573 35.176 29.9947 35.5173 30.496 36.04C30.9973 36.552 31.248 37.1707 31.248 37.896C31.248 38.504 31.0933 39.0427 30.784 39.512C30.4747 39.9813 30.032 40.3493 29.456 40.616C28.88 40.872 28.1973 41 27.408 41C27.12 41 26.8747 40.9947 26.672 40.984C25.9893 40.9627 25.3173 40.952 24.656 40.952C23.7813 40.952 23.12 40.968 22.672 41V40.68C23.056 40.6587 23.3333 40.616 23.504 40.552C23.6853 40.488 23.808 40.3653 23.872 40.184C23.936 40.0027 23.968 39.7093 23.968 39.304V31.368C23.968 30.9627 23.936 30.6693 23.872 30.488C23.808 30.3067 23.6853 30.184 23.504 30.12C23.3333 30.056 23.056 30.0133 22.672 29.992V29.672C23.12 29.704 23.7707 29.72 24.624 29.72L26.352 29.704C26.5547 29.6933 26.784 29.688 27.04 29.688C28.128 29.688 28.96 29.9173 29.536 30.376C30.1227 30.8347 30.416 31.4427 30.416 32.2C30.416 32.8187 30.2187 33.3733 29.824 33.864C29.44 34.3547 28.8267 34.728 27.984 34.984V35.016ZM26.64 29.992C26.3093 29.992 26.0587 30.0293 25.888 30.104C25.728 30.1787 25.616 30.312 25.552 30.504C25.488 30.696 25.456 30.984 25.456 31.368V34.984H26.528C27.4027 34.984 28.0107 34.7493 28.352 34.28C28.704 33.8 28.88 33.1653 28.88 32.376C28.88 31.576 28.704 30.9787 28.352 30.584C28 30.1893 27.4293 29.992 26.64 29.992ZM26.656 40.632C28.6507 40.632 29.648 39.6987 29.648 37.832C29.648 36.9893 29.4187 36.3493 28.96 35.912C28.512 35.4747 27.792 35.256 26.8 35.256H25.456V39.304C25.456 39.688 25.488 39.9707 25.552 40.152C25.616 40.3333 25.728 40.4613 25.888 40.536C26.0587 40.6 26.3147 40.632 26.656 40.632Z" fill="white"/>
<path d="M34.034 33.9098C34.0439 34.3367 34.0333 34.7634 34.0024 35.1899C33.9698 35.6162 33.9157 36.0416 33.8411 36.4635C33.6893 37.3119 33.4547 38.1367 33.1373 38.938C32.8169 39.7403 32.4211 40.5035 31.9497 41.2274C31.7142 41.5893 31.4609 41.9382 31.1896 42.274C30.9189 42.61 30.632 42.932 30.329 43.2401C30.026 43.5481 29.7084 43.8415 29.3762 44.1202C29.044 44.397 28.6985 44.6567 28.3398 44.8994C27.8908 45.2031 27.4248 45.4779 26.9418 45.7239C26.4587 45.9698 25.9623 46.1849 25.4526 46.3693C24.9429 46.5536 24.4237 46.7058 23.8951 46.8258C23.3665 46.9457 22.8325 47.0326 22.2932 47.0863C21.7538 47.14 21.2132 47.1602 20.6713 47.1469C20.1294 47.1336 19.5904 47.0869 19.0543 47.0067C18.5182 46.9265 17.9892 46.8135 17.4671 46.6677C16.945 46.5219 16.434 46.3444 15.9339 46.1353C15.1337 45.798 14.3742 45.3859 13.6553 44.8989C13.2968 44.6564 12.9514 44.3966 12.6189 44.1195C12.2876 43.8422 11.9703 43.5492 11.6671 43.2406C11.3639 42.9319 11.077 42.6098 10.8065 42.2744C10.5353 41.9387 10.282 41.59 10.0467 41.2281C9.57504 40.5044 9.17918 39.7413 8.85906 38.9389C8.5415 38.138 8.30681 37.3135 8.155 36.4654C8.08029 36.0434 8.02643 35.6188 7.99342 35.1916C7.96041 34.7644 7.94987 34.3377 7.96178 33.9115C7.96178 33.9035 7.96581 33.8995 7.97386 33.8995C7.98191 33.8995 7.98594 33.9035 7.98594 33.9115C7.9865 34.7659 8.06974 35.6121 8.23567 36.4502C8.29804 36.7635 8.37185 37.074 8.45713 37.3818C8.54241 37.6896 8.63888 37.9938 8.74655 38.2945C8.85428 38.5952 8.97289 38.8915 9.1024 39.1835C9.23192 39.4754 9.37203 39.7622 9.52273 40.0438C9.6734 40.3254 9.83423 40.6011 10.0052 40.8709C10.1762 41.1406 10.3569 41.4037 10.5473 41.6602C10.7377 41.9166 10.9373 42.1657 11.146 42.4075C11.3548 42.6492 11.5721 42.8829 11.7981 43.1086C12.0241 43.3343 12.2581 43.5514 12.5 43.7598C12.7421 43.9683 12.9914 44.1676 13.248 44.3576C13.5047 44.5477 13.768 44.7281 14.038 44.8988C14.308 45.0695 14.5838 45.23 14.8656 45.3803C15.1474 45.5306 15.4344 45.6704 15.7265 45.7996C16.0186 45.9288 16.315 46.047 16.6159 46.1543C16.9167 46.2617 17.221 46.3578 17.529 46.4427C17.8369 46.5276 18.1475 46.601 18.4608 46.663C19.2985 46.8276 20.1441 46.9099 20.9978 46.9099C21.8515 46.9099 22.6971 46.8276 23.5348 46.663C24.3724 46.4978 25.1855 46.2519 25.9743 45.9254C26.3678 45.7622 26.7524 45.5802 27.1281 45.3794C27.5038 45.1785 27.8688 44.9597 28.223 44.7231C28.5772 44.4865 28.9191 44.2331 29.2485 43.9629C29.5779 43.6928 29.8933 43.4072 30.1947 43.1061C30.4961 42.8051 30.7821 42.49 31.0526 42.1609C31.3231 41.8318 31.5769 41.4903 31.814 41.1363C32.0511 40.7823 32.2702 40.4176 32.4715 40.0421C32.6728 39.6667 32.8553 39.2823 33.0189 38.8889C33.3466 38.1003 33.5936 37.2872 33.7599 36.4495C33.926 35.6111 34.0093 34.7645 34.0099 33.9098C34.0099 33.9018 34.0139 33.8978 34.022 33.8978C34.0297 33.8979 34.0337 33.9019 34.034 33.9096V33.9098Z" fill="white"/>
</svg>
